<svg width="24" height="24" viewBox="0 0 24 24" fill="none" xmlns="http://www.w3.org/2000/svg">
<path fill-rule="evenodd" clip-rule="evenodd" d="M8 4C4.68629 4 2 6.68629 2 10V12.8085C2 16.1222 4.68629 18.8085 8 18.8085H8.30313C8.39473 18.8085 8.45522 18.9038 8.41626 18.9867L7.14484 21.6918C7.09534 21.7971 7.20395 21.907 7.30982 21.8587L13.753 18.9211C13.9158 18.8469 14.0926 18.8085 14.2715 18.8085H16C19.3137 18.8085 22 16.1222 22 12.8085V10C22 6.68629 19.3137 4 16 4H8ZM8 13C8.55228 13 9 12.5523 9 12C9 11.4477 8.55228 11 8 11C7.44772 11 7 11.4477 7 12C7 12.5523 7.44772 13 8 13ZM13 12C13 12.5523 12.5523 13 12 13C11.4477 13 11 12.5523 11 12C11 11.4477 11.4477 11 12 11C12.5523 11 13 11.4477 13 12ZM16 13C16.5523 13 17 12.5523 17 12C17 11.4477 16.5523 11 16 11C15.4477 11 15 11.4477 15 12C15 12.5523 15.4477 13 16 13Z" fill="black"/>
</svg>
