<svg width="24" height="24" viewBox="0 0 24 24" fill="none" xmlns="http://www.w3.org/2000/svg">
<path d="M15.0664 3.77975C15.4971 3.3491 16.1953 3.3491 16.6259 3.77975L19.2203 6.3741C19.6509 6.80475 19.6509 7.50295 19.2203 7.9336L18.313 8.8409C18.0977 9.05622 17.7486 9.05622 17.5332 8.8409L14.1591 5.4668C13.9438 5.25148 13.9438 4.90237 14.1591 4.68705L15.0664 3.77975Z" stroke="black" stroke-width="1.5"/>
<path d="M12.9895 5.85665C13.4202 5.42601 14.1184 5.42601 14.549 5.85665L17.1434 8.45101C17.574 8.88165 17.574 9.57986 17.1434 10.0105L9.0011 18.1528C8.95804 18.1958 8.88822 18.1958 8.84516 18.1528L4.84726 14.1549C4.80419 14.1118 4.80419 14.042 4.84726 13.9989L12.9895 5.85665Z" stroke="black" stroke-width="1.5"/>
<path d="M4.7381 14.2952C4.75095 14.2053 4.86098 14.1686 4.92524 14.2329L8.76719 18.0748C8.83144 18.1391 8.79476 18.2491 8.70481 18.2619L5.53251 18.7151C4.80474 18.8191 4.18095 18.1953 4.28491 17.4675L4.7381 14.2952Z" stroke="black" stroke-width="1.5"/>
<path d="M5 21H19.3355" stroke="black" stroke-width="1.5" stroke-linecap="round"/>
</svg>
