<svg width="16" height="16" viewBox="0 0 16 16" fill="none" xmlns="http://www.w3.org/2000/svg">
<path d="M0 2C0 0.895433 0.89543 0 2 0H11.011C12.1155 0 13.011 0.89543 13.011 2V11.011C13.011 12.1155 12.1155 13.011 11.011 13.011H2C0.895433 13.011 0 12.1155 0 11.011V2Z" fill="white"/>
<path d="M3.13336 14.6547C3.40451 15.4377 4.14847 16 5.02375 16H14C15.1046 16 16 15.1046 16 14V5.02377C16 4.14849 15.4377 3.40453 14.6547 3.13338C14.7257 3.33851 14.7643 3.55878 14.7643 3.78807V12.7643C14.7643 13.8689 13.8689 14.7643 12.7643 14.7643H3.78806C3.55877 14.7643 3.33849 14.7257 3.13336 14.6547Z" fill="white"/>
</svg>
