<svg xmlns="http://www.w3.org/2000/svg" width="32" height="32" viewBox="0 0 8.467 8.467" id="notification"><path fill-rule="evenodd" d="M15.996 1.004c-6.05 0-10.99 4.949-10.99 10.998v4.002c0 3.076-1.205 5.676-1.692 6.65-.978 1.96.5 4.34 2.688 4.34H11.1C11.564 29.272 13.59 31 16 31s4.436-1.728 4.9-4.006h5.098c2.188 0 3.656-2.384 2.68-4.34-.484-.97-1.682-3.573-1.682-6.65v-4.002c0-6.05-4.95-10.998-11-10.998zm0 1.992c4.96 0 9.006 4.045 9.006 9.006v4.002c0 3.59 1.362 6.492 1.89 7.55.35.702-.111 1.448-.894 1.448H6.002c-.789 0-1.252-.743-.9-1.447.527-1.057 1.896-3.96 1.896-7.551v-4.002c0-4.962 4.037-9.006 8.998-9.006zm0 2c-3.86 0-6.998 3.145-6.998 7.006a1 1 0 0 0 2 0 4.969 4.969 0 0 1 4.998-5.004 1 1 0 1 0 0-2.002zM10 15a1 1 0 0 0-1 1 1 1 0 0 0 1 1 1 1 0 0 0 1-1 1 1 0 0 0-1-1zm3.18 11.994h5.64A2.974 2.974 0 0 1 16 29a2.974 2.974 0 0 1-2.82-2.006z" color="#000" font-family="sans-serif" font-weight="400" overflow="visible" paint-order="stroke fill markers" transform="scale(.26458)" style="line-height:normal;font-variant-ligatures:normal;font-variant-position:normal;font-variant-caps:normal;font-variant-numeric:normal;font-variant-alternates:normal;font-feature-settings:normal;text-indent:0;text-align:start;text-decoration-line:none;text-decoration-style:solid;text-decoration-color:#000;text-transform:none;text-orientation:mixed;shape-padding:0;isolation:auto;mix-blend-mode:normal"></path></svg>